REM MD5 1e22c7599e866e6fe0395123b53d8d67
FILE "PlayStation Underground Jampack - Winter '99 (USA).bin" BINARY
  TRACK 01 MODE2/2352
    INDEX 01 00:00:00
  TRACK 02 AUDIO
    INDEX 00 65:42:27
    INDEX 01 65:44:27
  TRACK 03 AUDIO
    INDEX 00 70:25:45
    INDEX 01 70:27:45
REM LEADOUT 70:33:41
